<svg width="200" height="200" viewBox="0 0 200 200" fill="none" xmlns="http://www.w3.org/2000/svg">
    <rect x="1" y="1" width="198" height="198" rx="19" fill="black" stroke="white" stroke-width="2"/>
    <path d="M50.7104 70.0981C50.7104 71.2619 50.4989 72.3092 50.0757 73.2402C49.6737 74.1501 49.0918 74.9224 48.3301 75.5571C47.5684 76.2131 46.6374 76.7103 45.5371 77.0488C44.4368 77.3874 43.1991 77.5566 41.8237 77.5566C40.7446 77.5566 39.6761 77.4085 38.6182 77.1123C37.5602 76.8161 36.6187 76.3188 35.7935 75.6206C34.9471 74.9224 34.2594 73.9914 33.7305 72.8276C33.2015 71.6427 32.937 70.1616 32.937 68.3843H27.0654C27.0654 70.7752 27.4146 72.8276 28.1128 74.5415C28.811 76.2554 29.742 77.673 30.9058 78.7944C32.0695 79.937 33.4025 80.8045 34.9048 81.397C36.4282 81.9894 38.0151 82.3703 39.6655 82.5396V88.6016H44.3945V82.5078C46.2354 82.3174 47.9069 81.9048 49.4092 81.27C50.9326 80.6353 52.2233 79.7889 53.2812 78.731C54.3392 77.6942 55.1538 76.4458 55.7251 74.9858C56.3175 73.5259 56.6138 71.8755 56.6138 70.0347C56.6138 68.1515 56.3175 66.5011 55.7251 65.0835C55.1538 63.6659 54.318 62.4175 53.2178 61.3384C52.1175 60.2593 50.7739 59.3177 49.187 58.5137C47.6001 57.7096 45.8122 56.9797 43.8232 56.3237C42.194 55.7736 40.7975 55.2129 39.6338 54.6416C38.4912 54.0492 37.5602 53.4144 36.8408 52.7373C36.1003 52.0602 35.5607 51.3091 35.2222 50.4839C34.8836 49.6587 34.7144 48.7171 34.7144 47.6592C34.7144 46.5801 34.8625 45.6068 35.1587 44.7393C35.4761 43.8506 35.931 43.0889 36.5234 42.4541C37.1582 41.7559 37.9728 41.2163 38.9673 40.8354C39.9829 40.4546 41.1678 40.2642 42.522 40.2642C43.7703 40.2642 44.8812 40.5075 45.8545 40.9941C46.8278 41.4808 47.653 42.1473 48.3301 42.9937C48.986 43.8612 49.4832 44.8979 49.8218 46.104C50.1815 47.2889 50.3613 48.5902 50.3613 50.0078H56.2012C56.18 47.5745 55.8521 45.4269 55.2173 43.5649C54.5825 41.6818 53.6621 40.1055 52.4561 38.8359C51.5251 37.8838 50.4248 37.1115 49.1553 36.519C47.8857 35.9054 46.4787 35.4928 44.9341 35.2812V28.2988H40.2051V35.2812C38.4912 35.4928 36.9255 35.9266 35.5078 36.5825C34.1113 37.2384 32.9264 38.0954 31.9531 39.1533C30.9587 40.2324 30.1864 41.4914 29.6362 42.9302C29.1073 44.369 28.8428 45.9771 28.8428 47.7544C28.8428 49.6375 29.1496 51.2985 29.7632 52.7373C30.3768 54.1761 31.2549 55.4456 32.3975 56.5459C33.5189 57.6673 34.873 58.63 36.46 59.4341C38.0469 60.2381 39.8242 60.9469 41.792 61.5605C43.3577 62.0684 44.7119 62.6291 45.8545 63.2427C46.9971 63.8351 47.9281 64.4805 48.6475 65.1787C49.3669 65.877 49.8853 66.6387 50.2026 67.4639C50.5412 68.2679 50.7104 69.146 50.7104 70.0981ZM27.5732 161.748L55.5981 149.719V145.085L27.5732 133.088V139.15L48.1079 146.767L50.0122 147.37L48.1079 147.91L27.5732 155.654V161.748Z" fill="white"/>
    <path d="M81.1157 77.874C79.2749 77.874 77.7303 77.5143 76.4819 76.7949C75.2547 76.0544 74.2708 75.0916 73.5303 73.9067C72.7686 72.743 72.2184 71.4312 71.8799 69.9712C71.5625 68.4901 71.4038 66.9984 71.4038 65.4961V64.1631C71.4038 62.682 71.5625 61.2114 71.8799 59.7515C72.2184 58.2915 72.7686 56.9691 73.5303 55.7842C74.292 54.6204 75.2865 53.6789 76.5137 52.9595C77.762 52.2189 79.2961 51.8486 81.1157 51.8486C82.3006 51.8486 83.4009 52.0496 84.4165 52.4517C85.4533 52.8537 86.342 53.4038 87.0825 54.1021C87.8231 54.8003 88.4049 55.6149 88.8281 56.5459C89.2725 57.4557 89.5052 58.429 89.5264 59.4658H95.0806C95.0806 57.7308 94.7314 56.1016 94.0332 54.5781C93.335 53.0547 92.3722 51.7323 91.145 50.6108C89.8966 49.5106 88.4155 48.6431 86.7017 48.0083C85.009 47.3524 83.147 47.0244 81.1157 47.0244C78.5132 47.0244 76.2386 47.4899 74.292 48.4209C72.3454 49.3519 70.7267 50.6003 69.436 52.166C68.1242 53.7529 67.1403 55.5832 66.4844 57.6567C65.8285 59.7303 65.5005 61.8991 65.5005 64.1631V65.4961C65.5005 67.7812 65.8285 69.9606 66.4844 72.0342C67.1403 74.0866 68.1242 75.8957 69.436 77.4614C70.7267 79.0483 72.3454 80.3073 74.292 81.2383C76.2386 82.1693 78.5132 82.6348 81.1157 82.6348C82.9354 82.6348 84.681 82.328 86.3525 81.7144C88.0241 81.0796 89.5052 80.2332 90.7959 79.1753C92.0866 78.1385 93.1128 76.9325 93.8745 75.5571C94.6574 74.1606 95.0594 72.7007 95.0806 71.1772H89.5264C89.5052 72.1294 89.2513 73.0181 88.7646 73.8433C88.2992 74.6473 87.675 75.3455 86.8921 75.938C86.1092 76.5516 85.21 77.0277 84.1943 77.3662C83.1999 77.7048 82.1737 77.874 81.1157 77.874ZM106.443 33.25V38.3599H118.123V76.9219H106.443V82H135.198V76.9219H123.994V33.25H106.443ZM145.481 47.6592V52.769H157.161V76.9219H145.481V82H174.236V76.9219H163.032V47.6592H145.481ZM156.399 38.6455C156.399 39.5977 156.685 40.3911 157.256 41.0259C157.848 41.6606 158.737 41.978 159.922 41.978C161.086 41.978 161.964 41.6606 162.556 41.0259C163.149 40.3911 163.445 39.5977 163.445 38.6455C163.445 38.1165 163.36 37.6299 163.191 37.1855C163.022 36.7412 162.768 36.3709 162.429 36.0747C162.154 35.7996 161.805 35.5881 161.382 35.4399C160.959 35.2707 160.472 35.186 159.922 35.186C159.372 35.186 158.875 35.2707 158.43 35.4399C158.007 35.5881 157.658 35.7996 157.383 36.0747C157.044 36.3921 156.79 36.7729 156.621 37.2173C156.473 37.6616 156.399 38.1377 156.399 38.6455Z" fill="#919191"/>
    <path d="M120.186 144.387L112.759 133.659H103.269L114.758 150.512L102.825 168H112.378L120.217 156.765L128.12 168H137.642L125.708 150.512L137.229 133.659H127.739L120.186 144.387ZM142.593 150.576V151.242C142.593 153.739 142.9 156.056 143.513 158.193C144.127 160.309 145.015 162.139 146.179 163.684C147.322 165.228 148.718 166.445 150.369 167.333C152.04 168.201 153.923 168.635 156.018 168.635C157.944 168.635 159.636 168.264 161.096 167.524C162.556 166.783 163.826 165.747 164.905 164.414L165.349 168H173.315V119.25H164.46V136.738C163.403 135.553 162.186 134.643 160.811 134.008C159.456 133.352 157.88 133.024 156.082 133.024C153.944 133.024 152.04 133.448 150.369 134.294C148.718 135.14 147.311 136.336 146.147 137.88C144.984 139.425 144.095 141.276 143.481 143.435C142.889 145.593 142.593 147.973 142.593 150.576ZM151.416 151.242V150.576C151.416 149.137 151.543 147.793 151.797 146.545C152.051 145.275 152.453 144.165 153.003 143.212C153.553 142.281 154.262 141.551 155.129 141.022C156.018 140.472 157.087 140.197 158.335 140.197C159.837 140.197 161.086 140.525 162.08 141.181C163.075 141.816 163.868 142.715 164.46 143.879V157.78C163.868 158.923 163.064 159.822 162.048 160.478C161.054 161.134 159.795 161.462 158.271 161.462C157.023 161.462 155.965 161.197 155.098 160.668C154.23 160.139 153.521 159.41 152.971 158.479C152.421 157.569 152.019 156.5 151.765 155.273C151.532 154.025 151.416 152.681 151.416 151.242Z" fill="#00FF38"/>
</svg>
